{"title":"The.American.2010.DVDRiP.XviD.R5.CUSTOM.SWESUB-Zen_Bud.avi","uid":5928888,"size":1471567100,"categoryP":"video","categoryS":"movies","magnet":"?xt=urn:btih:f06f20e33398dfcbe48ed8a6c39a47ba108177d1&amp;dn=The.American.2010.DVDRiP.XviD.R5.CUSTOM.SWESUB-Zen_Bud.avi&amp;tr=udp%3A%2F%2Ftracker.openbittorrent.com%3A80&amp;tr=udp%3A%2F%2Fopen.demonii.com%3A1337&amp;tr=udp%3A%2F%2Ftracker.coppersurfer.tk%3A6969&amp;tr=udp%3A%2F%2Fexodus.desync.com%3A6969","seeders":0,"leechers":0,"uploader":"Zen_Bud","files":-1,"time":1288697184,"description":"****** The.American.2010.DVDRiP.XviD.R5.CUSTOM.SWESUB-Zen_Bud.avi ******\n\nFormat                           : AVI\nFile size                        : 1.37 GiB\nDuration                         : 1h 40mn\nOverall bit rate                 : 1 950 Kbps\n\nVideo\n\nFormat                           : MPEG-4 Visual\nCodec ID/Hint                    : XviD\nDuration                         : 1h 40mn\nBit rate                         : 1 809 Kbps\nWidth                            : 720 pixels\nHeight                           : 576 pixels\nDisplay aspect ratio             : 16:9\nStream size                      : 1.27 GiB (93%)\nWriting library                  : XviD 1.1.2 (UTC 2006-11-01)\n\nAudio\n\nFormat                           : MPEG Audio\nCodec ID/Hint                    : MP3\nDuration                         : 1h 40mn\nBit rate                         : 128 Kbps\nChannel(s)                       : 2 channels\nSampling rate                    : 48.0 KHz\nStream size                      : 92.1 MiB (7%)\nWriting library                  : LAME3.98\n\n\n\n\n******************THX to &quot;Knutte for the Text :=) ********************","torrent":{"xt":"urn:btih:f06f20e33398dfcbe48ed8a6c39a47ba108177d1","amp;dn":"The.American.2010.DVDRiP.XviD.R5.CUSTOM.SWESUB-Zen_Bud.avi","amp;tr":["udp%3A%2F%2Ftracker.openbittorrent.com%3A80","udp%3A%2F%2Fopen.demonii.com%3A1337","udp%3A%2F%2Ftracker.coppersurfer.tk%3A6969","udp%3A%2F%2Fexodus.desync.com%3A6969"],"infoHash":"f06f20e33398dfcbe48ed8a6c39a47ba108177d1","infoHashBuffer":{"type":"Buffer","data":[240,111,32,227,51,152,223,203,228,142,216,166,195,154,71,186,16,129,119,209]},"announce":[],"urlList":[]}}